# Blender 3.6.2
# www.blender.org
o Wooden_box_01_Cube
v 0.500000 0.500000 0.500000
v 0.500000 -0.500000 0.500000
v 0.399561 -0.399561 0.500000
v 0.399561 0.399561 0.500000
v 0.399561 -0.500000 0.399561
v 0.500000 0.399561 0.399561
v 0.500000 -0.399561 0.399561
v 0.399561 0.500000 0.500000
v 0.500000 0.500000 0.399561
v 0.399561 -0.500000 0.500000
v 0.500000 -0.500000 0.399561
v -0.500000 0.500000 0.500000
v -0.500000 -0.500000 0.500000
v -0.399561 -0.399561 0.500000
v -0.399561 0.399561 0.500000
v -0.399561 -0.500000 0.399561
v -0.500000 -0.399561 0.399561
v -0.399561 0.500000 0.500000
v -0.500000 0.500000 0.399561
v -0.399561 -0.500000 0.500000
v -0.500000 -0.500000 0.399561
v -0.449237 -0.399561 0.399561
v -0.449237 0.399561 0.399561
v -0.399561 -0.449237 0.399561
v 0.399561 -0.449237 0.399561
v 0.500000 0.500000 -0.500000
v 0.500000 -0.500000 -0.500000
v 0.399561 -0.399561 -0.500000
v 0.399561 0.399561 -0.500000
v 0.399561 -0.500000 -0.399561
v 0.500000 0.399561 -0.399561
v 0.500000 -0.399561 -0.399561
v 0.399561 0.500000 -0.500000
v 0.500000 0.500000 -0.399561
v 0.399561 -0.500000 -0.500000
v 0.500000 -0.500000 -0.399561
v -0.500000 0.500000 -0.500000
v -0.500000 -0.500000 -0.500000
v -0.399561 -0.399561 -0.500000
v -0.399561 0.399561 -0.500000
v -0.399561 -0.500000 -0.399561
v -0.500000 0.399561 -0.399561
v -0.399561 0.500000 -0.500000
v -0.500000 0.500000 -0.399561
v -0.399561 -0.500000 -0.500000
v -0.500000 -0.500000 -0.399561
v -0.399561 -0.399561 0.449237
v -0.399561 0.399561 0.449237
v 0.449237 -0.399561 0.399561
v 0.449237 0.399561 0.399561
v 0.399561 -0.399561 0.449237
v 0.399561 0.399561 0.449237
v -0.449237 -0.399561 -0.399561
v -0.449237 0.399561 -0.399561
v -0.399561 -0.449237 -0.399561
v 0.399561 -0.449237 -0.399561
v -0.399561 -0.399561 -0.449237
v -0.399561 0.399561 -0.449237
v 0.449237 -0.399561 -0.399561
v 0.449237 0.399561 -0.399561
v 0.399561 -0.399561 -0.449237
v 0.399561 0.399561 -0.449237
v -0.500000 0.399561 0.399561
v -0.500000 -0.399561 -0.399561
v -0.486928 0.399561 0.399561
v -0.486928 0.328571 0.399561
v -0.486928 0.399561 0.328477
v -0.486928 -0.399561 -0.328145
v -0.486928 -0.328479 -0.399561
v -0.428252 0.399561 0.328477
v -0.428252 0.328571 0.399561
v -0.428252 -0.399561 -0.328145
v -0.428252 -0.328479 -0.399561
v -0.486928 -0.399561 -0.399561
v 0.486928 0.399561 -0.399561
v 0.486928 0.328571 -0.399561
v 0.486928 0.399561 -0.328477
v 0.486928 -0.399561 0.328145
v 0.486928 -0.328479 0.399561
v 0.428252 0.399561 -0.328477
v 0.428252 0.328571 -0.399561
v 0.428252 -0.399561 0.328145
v 0.428252 -0.328479 0.399561
v 0.486928 -0.399561 0.399561
v -0.399561 0.399561 0.486928
v -0.399561 0.328571 0.486928
v -0.328477 0.399561 0.486928
v 0.328145 -0.399561 0.486928
v 0.399561 -0.328479 0.486928
v -0.328477 0.399561 0.428252
v -0.399561 0.328571 0.428252
v 0.328145 -0.399561 0.428252
v 0.399561 -0.328479 0.428252
v 0.399561 -0.399561 0.486928
v 0.399561 0.399561 -0.486928
v 0.399561 0.328571 -0.486928
v 0.328477 0.399561 -0.486928
v -0.328145 -0.399561 -0.486928
v -0.399561 -0.328479 -0.486928
v 0.328477 0.399561 -0.428252
v 0.399561 0.328571 -0.428252
v -0.328145 -0.399561 -0.428252
v -0.399561 -0.328479 -0.428252
v -0.399561 -0.399561 -0.486928
v 0.399561 -0.486928 0.399561
v 0.399561 -0.486928 0.328571
v 0.328477 -0.486928 0.399561
v -0.328145 -0.486928 -0.399561
v -0.399561 -0.486928 -0.328479
v 0.328477 -0.428252 0.399561
v 0.399561 -0.428252 0.328571
v -0.328145 -0.428252 -0.399561
v -0.399561 -0.428252 -0.328479
v -0.399561 -0.486928 -0.399561
vn 1.0000 -0.0000 -0.0000
vn -0.0000 -0.0000 -1.0000
vn -0.0000 -0.0000 1.0000
vn -0.0000 -1.0000 -0.0000
vn -0.0000 1.0000 -0.0000
vn -1.0000 -0.0000 -0.0000
vn -0.0000 -0.7069 0.7073
vn -0.0000 0.7071 -0.7071
vn -0.0000 -0.7069 -0.7073
vn -0.0000 0.7071 0.7071
vn -0.7073 -0.7069 -0.0000
vn 0.7071 0.7071 -0.0000
vn 0.7073 -0.7069 -0.0000
vn -0.7071 0.7071 -0.0000
vn 0.7073 -0.0000 -0.7069
vn -0.7071 -0.0000 0.7071
vt 0.026094 0.500263
vt 0.041188 0.737884
vt 0.026094 0.737884
vt 0.041188 0.975505
vt 0.026094 0.975505
vt 0.659084 0.986683
vt 0.626935 0.986683
vt 0.626933 0.956484
vt 0.626935 0.668227
vt 0.659084 0.668227
vt 0.626935 0.698431
vt 0.371122 0.956484
vt 0.371122 0.986683
vt 0.371122 0.698431
vt 0.338975 0.986683
vt 0.371122 0.668227
vt 0.338975 0.668227
vt 0.666917 0.986684
vt 0.699066 0.956484
vt 0.699066 0.986684
vt 0.666917 0.668227
vt 0.699065 0.668227
vt 0.699066 0.698427
vt 0.954877 0.698427
vt 0.954876 0.668227
vt 0.954877 0.956484
vt 0.987026 0.986684
vt 0.954877 0.986684
vt 0.987026 0.668227
vt 0.627842 0.339596
vt 0.372038 0.371607
vt 0.372040 0.339598
vt 0.372040 0.627411
vt 0.627842 0.659422
vt 0.372040 0.659422
vt 0.659857 0.627411
vt 0.659857 0.659422
vt 0.340032 0.627411
vt 0.340032 0.659422
vt 0.340030 0.371607
vt 0.627842 0.371607
vt 0.627842 0.627411
vt 0.659857 0.371607
vt 0.659857 0.339598
vt 0.340030 0.339598
vt 0.988484 0.339596
vt 0.988484 0.371605
vt 0.956471 0.339596
vt 0.988484 0.627411
vt 0.956471 0.659422
vt 0.668659 0.339596
vt 0.700670 0.339596
vt 0.668659 0.371605
vt 0.988484 0.659422
vt 0.668659 0.659422
vt 0.668659 0.627411
vt 0.700670 0.659422
vt 0.659081 0.330292
vt 0.626932 0.330292
vt 0.626932 0.300089
vt 0.659081 0.011838
vt 0.626932 0.042034
vt 0.626932 0.011838
vt 0.371122 0.042034
vt 0.371122 0.011838
vt 0.338975 0.330292
vt 0.371122 0.300087
vt 0.371122 0.330292
vt 0.338975 0.011838
vt 0.093469 0.500043
vt 0.108565 0.737662
vt 0.093469 0.737665
vt 0.108565 0.975285
vt 0.093469 0.975285
vt 0.070754 0.248135
vt 0.085849 0.485756
vt 0.070754 0.485756
vt 0.070754 0.010514
vt 0.085849 0.248135
vt 0.699065 0.330292
vt 0.954877 0.300089
vt 0.954877 0.330292
vt 0.666917 0.330292
vt 0.699065 0.300089
vt 0.699065 0.011838
vt 0.699065 0.042038
vt 0.666917 0.011838
vt 0.954877 0.011839
vt 0.987028 0.330292
vt 0.987028 0.011839
vt 0.954877 0.042038
vt 0.063441 0.247651
vt 0.048346 0.010029
vt 0.063441 0.010030
vt 0.063441 0.485275
vt 0.048346 0.247652
vt 0.108759 0.248752
vt 0.093663 0.011133
vt 0.108759 0.011133
vt 0.108759 0.486375
vt 0.093663 0.248754
vt 0.025816 0.010425
vt 0.040911 0.248047
vt 0.025816 0.248046
vt 0.040911 0.485669
vt 0.025816 0.485669
vt 0.945784 0.289876
vt 0.708163 0.052255
vt 0.945784 0.052255
vt 0.018611 0.485234
vt 0.003517 0.247613
vt 0.018611 0.247613
vt 0.003517 0.009992
vt 0.018611 0.009992
vt 0.945783 0.708645
vt 0.708162 0.946266
vt 0.708162 0.708645
vt 0.019125 0.738055
vt 0.004031 0.500434
vt 0.019125 0.500434
vt 0.019125 0.975676
vt 0.004031 0.738055
vt 0.116710 0.736673
vt 0.131805 0.974296
vt 0.116710 0.974296
vt 0.154168 0.974884
vt 0.139073 0.737262
vt 0.154168 0.737263
vt 0.199854 0.974793
vt 0.184759 0.737173
vt 0.199854 0.737173
vt 0.617839 0.708644
vt 0.380218 0.946265
vt 0.380218 0.708644
vt 0.618756 0.618323
vt 0.381135 0.380702
vt 0.618756 0.380702
vt 0.161923 0.736803
vt 0.177018 0.974423
vt 0.161923 0.974424
vt 0.380218 0.289876
vt 0.617839 0.052255
vt 0.617839 0.289876
vt 0.224125 0.373515
vt 0.239380 0.700199
vt 0.224175 0.715389
vt 0.257122 0.388783
vt 0.239381 0.388785
vt 0.191200 0.700187
vt 0.208939 0.388721
vt 0.208950 0.700186
vt 0.149989 0.011570
vt 0.165243 0.338256
vt 0.150037 0.353445
vt 0.182986 0.026841
vt 0.165244 0.026842
vt 0.117065 0.338244
vt 0.134803 0.026779
vt 0.134814 0.338242
vt 0.165216 0.388327
vt 0.150010 0.715013
vt 0.150020 0.373139
vt 0.183015 0.699739
vt 0.165276 0.699739
vt 0.134804 0.699803
vt 0.117070 0.388338
vt 0.134817 0.388340
vt 0.313352 0.027026
vt 0.298142 0.353713
vt 0.298155 0.011838
vt 0.331149 0.338438
vt 0.313410 0.338440
vt 0.282936 0.338504
vt 0.265202 0.027039
vt 0.282950 0.027040
vt 0.298119 0.373407
vt 0.313367 0.700092
vt 0.298175 0.715281
vt 0.331129 0.388678
vt 0.313390 0.388678
vt 0.265200 0.700079
vt 0.282927 0.388613
vt 0.282959 0.700078
vt 0.041188 0.500263
vt 0.108565 0.500043
vt 0.085849 0.010514
vt 0.048346 0.485275
vt 0.093663 0.486375
vt 0.040911 0.010425
vt 0.708163 0.289876
vt 0.003517 0.485234
vt 0.945783 0.946266
vt 0.004031 0.975676
vt 0.131805 0.736674
vt 0.139073 0.974884
vt 0.184759 0.974794
vt 0.617839 0.946265
vt 0.381135 0.618323
vt 0.177018 0.736803
vt 0.380218 0.052255
vt 0.257138 0.700196
vt 0.191189 0.388723
vt 0.183002 0.338253
vt 0.117053 0.026780
vt 0.182978 0.388326
vt 0.117053 0.699802
vt 0.331111 0.027026
vt 0.265186 0.338501
vt 0.331127 0.700092
vt 0.265186 0.388615
s 0
f 41/1/1 24/2/1 16/3/1
f 16/3/2 25/4/2 5/5/2
f 1/6/3 8/7/3 4/8/3
f 10/9/3 2/10/3 3/11/3
f 15/12/3 8/7/3 18/13/3
f 1/6/3 3/11/3 2/10/3
f 14/14/3 10/9/3 3/11/3
f 12/15/3 15/12/3 18/13/3
f 20/16/3 14/14/3 13/17/3
f 14/14/3 12/15/3 13/17/3
f 1/18/1 6/19/1 9/20/1
f 2/21/1 6/19/1 1/18/1
f 2/21/1 11/22/1 7/23/1
f 32/24/1 11/22/1 36/25/1
f 31/26/1 9/20/1 6/19/1
f 26/27/1 34/28/1 31/26/1
f 31/26/1 27/29/1 26/27/1
f 27/29/1 32/24/1 36/25/1
f 35/30/4 41/31/4 45/32/4
f 16/33/4 10/34/4 20/35/4
f 10/34/4 11/36/4 2/37/4
f 21/38/4 20/35/4 13/39/4
f 46/40/4 16/33/4 21/38/4
f 30/41/4 11/36/4 5/42/4
f 36/43/4 35/30/4 27/44/4
f 45/32/4 46/40/4 38/45/4
f 1/46/5 9/47/5 8/48/5
f 8/48/5 34/49/5 33/50/5
f 12/51/5 18/52/5 19/53/5
f 26/54/5 33/50/5 34/49/5
f 37/55/5 44/56/5 43/57/5
f 44/56/5 18/52/5 43/57/5
f 43/57/5 8/48/5 33/50/5
f 12/58/6 19/59/6 63/60/6
f 63/60/6 13/61/6 12/58/6
f 13/61/6 17/62/6 21/63/6
f 21/63/6 64/64/6 46/65/6
f 37/66/6 42/67/6 44/68/6
f 38/69/6 42/67/6 37/66/6
f 38/69/6 46/65/6 64/64/6
f 44/68/6 63/60/6 19/59/6
f 64/70/3 54/71/3 42/72/3
f 42/72/4 23/73/4 63/74/4
f 15/75/4 52/76/4 4/77/4
f 14/78/1 48/79/1 15/75/1
f 33/80/2 40/81/2 43/82/2
f 26/83/2 29/84/2 33/80/2
f 35/85/2 28/86/2 27/87/2
f 28/86/2 26/83/2 27/87/2
f 45/88/2 28/86/2 35/85/2
f 37/89/2 43/82/2 40/81/2
f 45/88/2 38/90/2 39/91/2
f 37/89/2 39/91/2 38/90/2
f 3/92/5 47/93/5 14/94/5
f 4/95/6 51/96/6 3/92/6
f 17/97/5 53/98/5 64/99/5
f 63/100/2 22/101/2 17/97/2
f 7/102/2 50/103/2 6/104/2
f 6/104/4 60/105/4 31/106/4
f 58/107/2 61/108/2 57/109/2
f 31/110/3 59/111/3 32/112/3
f 32/112/5 49/113/5 7/114/5
f 59/115/1 50/116/1 49/117/1
f 30/118/3 55/119/3 41/120/3
f 5/121/6 56/122/6 30/118/6
f 29/123/4 58/124/4 40/125/4
f 40/126/1 57/127/1 39/128/1
f 39/129/5 61/130/5 28/131/5
f 51/132/3 48/133/3 47/134/3
f 25/135/4 55/136/4 56/137/4
f 28/138/6 62/139/6 29/140/6
f 54/141/6 22/142/6 23/143/6
f 74/144/6 66/145/6 65/146/6
f 72/147/7 66/145/7 68/148/7
f 70/149/8 69/150/8 67/151/8
f 69/150/6 65/146/6 67/151/6
f 84/152/1 76/153/1 75/154/1
f 82/155/9 76/153/9 78/156/9
f 80/157/10 79/158/10 77/159/10
f 79/158/1 75/154/1 77/159/1
f 86/160/3 94/161/3 85/162/3
f 86/160/11 92/163/11 88/164/11
f 89/165/12 90/166/12 87/167/12
f 85/162/3 89/165/3 87/167/3
f 96/168/2 104/169/2 95/170/2
f 96/168/13 102/171/13 98/172/13
f 99/173/14 100/174/14 97/175/14
f 95/170/2 99/173/2 97/175/2
f 114/176/4 106/177/4 105/178/4
f 112/179/15 106/177/15 108/180/15
f 110/181/16 109/182/16 107/183/16
f 109/182/4 105/178/4 107/183/4
f 41/1/1 55/184/1 24/2/1
f 16/3/2 24/2/2 25/4/2
f 15/12/3 4/8/3 8/7/3
f 1/6/3 4/8/3 3/11/3
f 14/14/3 20/16/3 10/9/3
f 14/14/3 15/12/3 12/15/3
f 2/21/1 7/23/1 6/19/1
f 32/24/1 7/23/1 11/22/1
f 31/26/1 34/28/1 9/20/1
f 31/26/1 32/24/1 27/29/1
f 35/30/4 30/41/4 41/31/4
f 16/33/4 5/42/4 10/34/4
f 10/34/4 5/42/4 11/36/4
f 21/38/4 16/33/4 20/35/4
f 46/40/4 41/31/4 16/33/4
f 30/41/4 36/43/4 11/36/4
f 36/43/4 30/41/4 35/30/4
f 45/32/4 41/31/4 46/40/4
f 8/48/5 9/47/5 34/49/5
f 44/56/5 19/53/5 18/52/5
f 43/57/5 18/52/5 8/48/5
f 63/60/6 17/62/6 13/61/6
f 21/63/6 17/62/6 64/64/6
f 38/69/6 64/64/6 42/67/6
f 44/68/6 42/67/6 63/60/6
f 64/70/3 53/185/3 54/71/3
f 42/72/4 54/71/4 23/73/4
f 15/75/4 48/79/4 52/76/4
f 14/78/1 47/186/1 48/79/1
f 33/80/2 29/84/2 40/81/2
f 28/86/2 29/84/2 26/83/2
f 45/88/2 39/91/2 28/86/2
f 37/89/2 40/81/2 39/91/2
f 3/92/5 51/96/5 47/93/5
f 4/95/6 52/187/6 51/96/6
f 17/97/5 22/101/5 53/98/5
f 63/100/2 23/188/2 22/101/2
f 7/102/2 49/189/2 50/103/2
f 6/104/4 50/103/4 60/105/4
f 58/107/2 62/190/2 61/108/2
f 31/110/3 60/191/3 59/111/3
f 32/112/5 59/111/5 49/113/5
f 59/115/1 60/192/1 50/116/1
f 30/118/3 56/122/3 55/119/3
f 5/121/6 25/193/6 56/122/6
f 29/123/4 62/194/4 58/124/4
f 40/126/1 58/195/1 57/127/1
f 39/129/5 57/196/5 61/130/5
f 51/132/3 52/197/3 48/133/3
f 25/135/4 24/198/4 55/136/4
f 28/138/6 61/199/6 62/139/6
f 54/141/6 53/200/6 22/142/6
f 74/144/6 68/148/6 66/145/6
f 72/147/7 71/201/7 66/145/7
f 70/149/8 73/202/8 69/150/8
f 69/150/6 74/144/6 65/146/6
f 84/152/1 78/156/1 76/153/1
f 82/155/9 81/203/9 76/153/9
f 80/157/10 83/204/10 79/158/10
f 79/158/1 84/152/1 75/154/1
f 86/160/3 88/164/3 94/161/3
f 86/160/11 91/205/11 92/163/11
f 89/165/12 93/206/12 90/166/12
f 85/162/3 94/161/3 89/165/3
f 96/168/2 98/172/2 104/169/2
f 96/168/13 101/207/13 102/171/13
f 99/173/14 103/208/14 100/174/14
f 95/170/2 104/169/2 99/173/2
f 114/176/4 108/180/4 106/177/4
f 112/179/15 111/209/15 106/177/15
f 110/181/16 113/210/16 109/182/16
f 109/182/4 114/176/4 105/178/4
